#!OML:ASF E:\Mandelcareful walks\Project 1\Capture day 1\Session 1\Subject1.ASF
:FULLY-SPECIFIED
:DEGREES
1
root 10.9188 16.8258 -1.23152 -140.176 -85.8089 143.363
lowerback -6.96285 -1.34452 -6.30626
upperback 0.881254 -1.30395 1.10751
thorax 5.00724 -0.838726 4.56162
lowerneck -14.0731 -10.8404 -17.7981
upperneck 26.931 -14.5193 9.6189
head 13.5077 -7.33891 4.16356
rclavicle -7.09413e-015 -1.55052e-014
rhumerus -28.584 -7.47771 -83.3321
rradius 24.3296
rwrist -6.90586
rhand -10.8677 -30.4224
rfingers 7.12502
rthumb 15.1479 -59.848
lclavicle -7.09413e-015 -1.55052e-014
lhumerus -27.2555 -7.46153 95.2707
lradius 21.9848
lwrist 6.36089
lhand -22.1655 -9.8116
lfingers 7.12502
lthumb 4.24895 20.1258
rfemur -2.05464 5.76652 9.68498
rtibia 12.6568
rfoot -16.1341 -26.5321
rtoes 1.11455
lfemur -3.23363 -6.92698 -16.0173
ltibia 20.924
lfoot -27.7811 28.1583
ltoes 4.98809
2
root 10.9181 16.8248 -1.23115 -140.518 -85.7836 143.696
lowerback -6.94008 -1.36314 -6.32916
upperback 0.864316 -1.32993 1.13055
thorax 4.98107 -0.85133 4.59626
lowerneck -14.0458 -10.7875 -17.8592
upperneck 26.9323 -14.4632 9.71285
head 13.5074 -7.31242 4.22377
rclavicle 2.7892e-014 -8.34896e-015
rhumerus -28.6052 -7.39659 -83.3334
rradius 24.3294
rwrist -6.91336
rhand -10.9613 -30.3223
rfingers 7.12502
rthumb 15.0578 -59.7546
lclavicle 2.7892e-014 -8.34896e-015
lhumerus -27.2294 -7.25885 95.2193
lradius 22.027
lwrist 6.11096
lhand -22.1365 -9.78257
lfingers 7.12502
lthumb 4.27699 20.1542
rfemur -2.09405 5.67925 9.68099
rtibia 12.7359
rfoot -16.1261 -26.433
rtoes 1.39514
lfemur -3.1854 -6.99083 -16.0302
ltibia 20.8999
lfoot -27.9546 28.1531
ltoes 5.11933
3
root 10.9165 16.8245 -1.23252 -141.092 -85.7718 144.258
lowerback -6.94225 -1.35933 -6.33627
upperback 0.86341 -1.32554 1.16049
thorax 4.98177 -0.849824 4.63238
lowerneck -14.014 -10.7896 -17.952
upperneck 26.9214 -14.4759 9.79912
head 13.5155 -7.31891 4.27125
rclavicle -8.69683e-017 8.74653e-015
rhumerus -28.6795 -7.33844 -83.3156
rradius 24.4213
rwrist -6.92513
rhand -11.0708 -30.3995
rfingers 7.12502
rthumb 14.9523 -59.8397
lclavicle -8.69683e-017 8.74653e-015
lhumerus -27.201 -7.02963 95.1757
lradius 22.0616
lwrist 5.85483
lhand -21.887 -9.63437
lfingers 7.12502
lthumb 4.51789 20.2975
rfemur -2.04181 5.72346 9.7221
rtibia 12.6583
rfoot -16.0877 -26.4914
rtoes 1.08375
lfemur -3.1876 -6.96329 -15.9959
ltibia 20.9308
lfoot -27.9576 28.23
ltoes 5.13078
4
root 10.9148 16.8263 -1.23308 -141.737 -85.7711 144.928
lowerback -7.00256 -1.35587 -6.32353
upperback 0.852894 -1.31974 1.19034
thorax 5.00457 -0.847543 4.65665
lowerneck -13.9203 -10.7777 -17.9826
upperneck 26.8728 -14.464 9.80247
head 13.4767 -7.31959 4.28333
rclavicle 2.7718e-014 -4.37326e-015
rhumerus -28.7541 -7.28823 -83.288
rradius 24.5052
rwrist -6.95251
rhand -11.1504 -30.6252
rfingers 7.12502
rthumb 14.8756 -60.0712
lclavicle 2.7718e-014 -4.37326e-015
lhumerus -27.19 -6.82685 95.1349
lradius 22.0855
lwrist 5.74631
lhand -21.6508 -9.53899
lfingers 7.12502
lthumb 4.74592 20.3879
rfemur -2.04259 5.74163 9.7654
rtibia 12.5962
rfoot -16.0353 -26.4977
rtoes 0.5684
lfemur -3.24466 -6.87896 -15.9429
ltibia 20.9687
lfoot -27.7668 28.3562
ltoes 4.87882
5
root 10.912 16.828 -1.23152 -142.372 -85.7855 145.602
lowerback -7.092 -1.354 -6.27278
upperback 0.863808 -1.3166 1.21389
thorax 5.06559 -0.847164 4.6519
lowerneck -13.9104 -10.764 -17.9552
upperneck 26.8533 -14.4361 9.76239
head 13.4552 -7.30894 4.26913
rclavicle 2.37299e-015 1.82882e-014
rhumerus -28.7096 -7.26133 -83.2483
rradius 24.4738
rwrist -6.99626
rhand -11.0969 -30.7787
rfingers 7.12502
rthumb 14.9271 -60.2209
lclavicle 2.37299e-015 1.82882e-014
lhumerus -27.1657 -6.78579 95.1415
lradius 22.1137
lwrist 5.78876
lhand -21.6755 -9.55959
lfingers 7.12502
lthumb 4.72207 20.3678
rfemur -2.04834 5.59251 9.79211
rtibia 12.5145
rfoot -15.942 -26.3649
rtoes 0.774867
lfemur -3.28885 -6.89163 -15.9014
ltibia 21.0146
lfoot -27.7923 28.3808
ltoes 4.9444
6
root 10.9093 16.8279 -1.23019 -143.131 -85.8211 146.39
lowerback -7.15224 -1.39672 -6.20488
upperback 0.881192 -1.37726 1.25603
thorax 5.12514 -0.878242 4.6497
lowerneck -14.0365 -10.7371 -17.9531
upperneck 26.9163 -14.3632 9.71707
head 13.4911 -7.27771 4.26114
rclavicle -1.10822e-014 7.95139e-016
rhumerus -28.6043 -7.27019 -83.1605
rradius 24.414
rwrist -6.67773
rhand -11.3797 -30.093
rfingers 7.12502
rthumb 14.6547 -59.5551
lclavicle -1.10822e-014 7.95139e-016
lhumerus -27.1103 -6.67663 95.128
lradius 22.072
lwrist 5.8127
lhand -21.7965 -9.6876
lfingers 7.12502
lthumb 4.60526 20.2423
rfemur -2.02427 5.47222 9.8468
rtibia 12.4016
rfoot -15.8268 -26.2678
rtoes 1.04753
lfemur -3.33205 -6.96791 -15.8336
ltibia 21.0702
lfoot -27.9545 28.3485
ltoes 5.20351
7
root 10.9096 16.8269 -1.23012 -143.941 -85.8422 147.185
lowerback -7.13356 -1.44717 -6.17155
upperback 0.894017 -1.45051 1.29889
thorax 5.13777 -0.914946 4.66737
lowerneck -14.1599 -10.6967 -17.9597
upperneck 27.004 -14.2794 9.68846
head 13.5374 -7.24207 4.26401
rclavicle -3.46631e-015 -4.37326e-015
rhumerus -28.5323 -7.42927 -83.0112
rradius 24.394
rwrist -5.92779
rhand -12.1113 -28.7629
rfingers 7.12502
rthumb 13.9497 -58.2749
lclavicle -3.46631e-015 -4.37326e-015
lhumerus -27.0699 -6.50814 95.0777
lradius 22.0387
lwrist 5.89879
lhand -21.7346 -9.7465
lfingers 7.12502
lthumb 4.66508 20.1821
rfemur -1.95404 5.48233 9.9147
rtibia 12.2948
rfoot -15.7478 -26.2275
rtoes 0.889396
lfemur -3.34102 -6.94442 -15.7672
ltibia 21.1268
lfoot -27.9959 28.3185
ltoes 5.06762
8
root 10.91 16.8266 -1.22956 -144.862 -85.8507 148.049
lowerback -7.06964 -1.39759 -6.08648
upperback 0.896814 -1.39415 1.26502
thorax 5.09372 -0.882725 4.59102
lowerneck -13.997 -10.6603 -17.9176
upperneck 26.938 -14.2955 9.78339
head 13.4826 -7.24149 4.29878
rclavicle 1.29583e-014 -3.57812e-015
rhumerus -28.5715 -7.62903 -82.9805
rradius 24.2943
rwrist -5.80818
rhand -12.2837 -28.6618
rfingers 7.12502
rthumb 13.7836 -58.1852
lclavicle 1.29583e-014 -3.57812e-015
lhumerus -27.1098 -6.73158 95.0885
lradius 22.0139
lwrist 6.05168
lhand -21.7994 -9.84175
lfingers 7.12502
lthumb 4.6025 20.0883
rfemur -1.86491 5.52033 9.98446
rtibia 12.2294
rfoot -15.737 -26.1987
rtoes 0.83883
lfemur -3.28545 -6.9523 -15.7217
ltibia 21.1649
lfoot -28.0558 28.3094
ltoes 4.95396
9
root 10.9082 16.8266 -1.22873 -145.21 -85.829 148.373
lowerback -7.06163 -1.35474 -6.02193
upperback 0.907858 -1.34059 1.21976
thorax 5.09095 -0.8538 4.51311
lowerneck -13.8325 -10.6325 -17.9339
upperneck 26.8206 -14.313 9.92202
head 13.416 -7.24075 4.3591
rclavicle 2.62893e-014 -2.78299e-015
rhumerus -28.5968 -7.65871 -83.0446
rradius 24.1247
rwrist -6.28275
rhand -11.5659 -29.6759
rfingers 7.12502
rthumb 14.4753 -59.151
lclavicle 2.62893e-014 -2.78299e-015
lhumerus -27.1342 -6.92152 95.1292
lradius 21.9235
lwrist 6.09707
lhand -22.1116 -10.0337
lfingers 7.12502
lthumb 4.301 19.9026
rfemur -1.8321 5.48454 9.98946
rtibia 12.197
rfoot -15.6543 -26.1686
rtoes 0.78954
lfemur -3.23467 -7.1113 -15.746
ltibia 21.1822
lfoot -28.25 28.3748
ltoes 5.03639
10
root 10.9062 16.8266 -1.22779 -144.905 -85.831 148.094
lowerback -7.13755 -1.4034 -6.03921
upperback 0.953225 -1.39874 1.23366
thorax 5.19005 -0.887435 4.52924
lowerneck -14.0383 -10.6551 -17.9757
upperneck 26.8677 -14.3076 9.95734
head 13.4853 -7.2294 4.37261
rclavicle -1.14301e-015 0
rhumerus -28.4538 -7.74891 -83.0026
rradius 24.0033
rwrist -6.28269
rhand -10.8016 -30.0831
rfingers 7.12502
rthumb 15.2117 -59.5039
lclavicle -1.14301e-015 0
lhumerus -27.0991 -6.76394 95.1346
lradius 21.9045
lwrist 6.0732
lhand -22.4011 -10.0863
lfingers 7.12502
lthumb 4.02142 19.8555
rfemur -1.83967 5.39094 9.9593
rtibia 12.1705
rfoot -15.6291 -26.1412
rtoes 0.941209
lfemur -3.25425 -7.14387 -15.7679
ltibia 21.1971
lfoot -28.3489 28.3497
ltoes 4.98167
11
root 10.9043 16.8259 -1.22682 -144.521 -85.864 147.74
lowerback -7.19452 -1.44334 -6.07179
upperback 0.987649 -1.44496 1.24024
thorax 5.26572 -0.914537 4.54796
lowerneck -14.3038 -10.6828 -17.893
upperneck 26.9821 -14.3139 9.90657
head 13.5777 -7.21962 4.32818
rclavicle -1.21134e-014 -2.38542e-015
rhumerus -28.3159 -7.85341 -82.9561
rradius 23.9335
rwrist -6.13828
rhand -10.6098 -29.8636
rfingers 7.12502
rthumb 15.3964 -59.2703
lclavicle -1.21134e-014 -2.38542e-015
lhumerus -27.0999 -6.70665 95.1397
lradius 21.9618
lwrist 6.18235
lhand -22.545 -10.0886
lfingers 7.12502
lthumb 3.88245 19.8558
rfemur -1.83257 5.37492 9.94806
rtibia 12.1415
rfoot -15.7263 -26.1712
rtoes 1.09314
lfemur -3.29605 -7.06838 -15.7577
ltibia 21.2162
lfoot -28.2636 28.2693
ltoes 4.95892
12
root 10.9022 16.8255 -1.22676 -144.651 -85.8782 147.89
lowerback -7.20374 -1.46467 -6.08959
upperback 0.994253 -1.47232 1.26434
thorax 5.28265 -0.929697 4.57996
lowerneck -14.4194 -10.6694 -17.8539
upperneck 27.0078 -14.269 9.86736
head 13.5977 -7.1956 4.31121
rclavicle -1.93442e-014 1.39149e-014
rhumerus -28.2831 -7.71986 -82.9539
rradius 23.8902
rwrist -6.24386
rhand -10.7515 -29.8606
rfingers 7.12502
rthumb 15.2599 -59.2777
lclavicle -1.93442e-014 1.39149e-014
lhumerus -27.097 -6.66068 95.1727
lradius 21.9232
lwrist 6.35217
lhand -22.5311 -10.147
lfingers 7.12502
lthumb 3.89591 19.7971
rfemur -1.83256 5.42199 9.96837
rtibia 12.1195
rfoot -15.7455 -26.2317
rtoes 0.911441
lfemur -3.31533 -7.11265 -15.7441
ltibia 21.2317
lfoot -28.265 28.2837
ltoes 5.14032
13
root 10.9013 16.8253 -1.22685 -145.704 -85.922 148.94
lowerback -7.17787 -1.51007 -6.04247
upperback 0.998029 -1.54249 1.33809
thorax 5.28165 -0.964338 4.62287
lowerneck -14.3901 -10.5985 -17.9253
upperneck 26.907 -14.1431 9.90301
head 13.5372 -7.14252 4.36314
rclavicle -3.31722e-015 -1.98785e-015
rhumerus -28.2805 -7.50775 -82.9385
rradius 23.8568
rwrist -6.28821
rhand -10.8915 -30.0072
rfingers 7.12502
rthumb 15.125 -59.4346
lclavicle -3.31722e-015 -1.98785e-015
lhumerus -27.1005 -6.46313 95.1966
lradius 21.8736
lwrist 6.41181
lhand -22.5212 -10.1157
lfingers 7.12502
lthumb 3.90548 19.8282
rfemur -1.81012 5.41066 10.0693
rtibia 12.0833
rfoot -15.7126 -26.24
rtoes 0.806466
lfemur -3.31997 -7.08078 -15.6432
ltibia 21.2516
lfoot -28.2947 28.2312
ltoes 5.34346
14
root 10.9015 16.8251 -1.22589 -146.448 -85.9474 149.682
lowerback -7.17035 -1.54134 -6.00629
upperback 1.00486 -1.58996 1.37996
thorax 5.29079 -0.987926 4.64079
lowerneck -14.231 -10.4791 -17.9229
upperneck 26.7517 -13.99 9.9484
head 13.4157 -7.07457 4.41782
rclavicle -4.89383e-014 1.27222e-014
rhumerus -28.3003 -7.39927 -82.9374
rradius 23.8872
rwrist -6.28454
rhand -10.9436 -30.11
rfingers 7.12502
rthumb 15.0748 -59.5411
lclavicle -4.89383e-014 1.27222e-014
lhumerus -27.1299 -6.41472 95.2369
lradius 21.8562
lwrist 6.52175
lhand -22.691 -10.258
lfingers 7.12502
lthumb 3.74145 19.6889
rfemur -1.76384 5.35249 10.1279
rtibia 11.9939
rfoot -15.6707 -26.191
rtoes 1.0759
lfemur -3.34935 -6.91266 -15.5622
ltibia 21.2887
lfoot -28.1518 28.1668
ltoes 5.28209
